<?xml version="1.0" encoding="UTF-8" standalone="no"?>
<svg
   xmlns:dc="http://purl.org/dc/elements/1.1/"
   xmlns:cc="http://creativecommons.org/ns#"
   xmlns:rdf="http://www.w3.org/1999/02/22-rdf-syntax-ns#"
   xmlns:svg="http://www.w3.org/2000/svg"
   xmlns="http://www.w3.org/2000/svg"
   xmlns:xlink="http://www.w3.org/1999/xlink"
   version="1.1"
   id="svg885"
   width="55"
   height="55"
   viewBox="0 0 55 55">
  <metadata
     id="metadata891">
    <rdf:RDF>
      <cc:Work
         rdf:about="">
        <dc:format>image/svg+xml</dc:format>
        <dc:type
           rdf:resource="http://purl.org/dc/dcmitype/StillImage" />
        <dc:title></dc:title>
      </cc:Work>
    </rdf:RDF>
  </metadata>
  <defs
     id="defs889">
    <linearGradient
       id="linearGradient1022">
      <stop
         id="stop1018"
         offset="0"
         style="stop-color:#502d16;stop-opacity:1" />
      <stop
         id="stop1020"
         offset="1"
         style="stop-color:#784421;stop-opacity:0.98500001" />
    </linearGradient>
    <linearGradient
       id="linearGradient1012">
      <stop
         id="stop1008"
         offset="0"
         style="stop-color:#502d16;stop-opacity:1" />
      <stop
         id="stop1010"
         offset="1"
         style="stop-color:#784421;stop-opacity:0.89999998" />
    </linearGradient>
    <linearGradient
       id="linearGradient1554">
      <stop
         style="stop-color:#563118;stop-opacity:1"
         offset="0"
         id="stop1550" />
      <stop
         style="stop-color:#784421;stop-opacity:1"
         offset="1"
         id="stop1552" />
    </linearGradient>
    <linearGradient
       id="linearGradient1544">
      <stop
         style="stop-color:#002b2b;stop-opacity:1"
         offset="0"
         id="stop1540" />
      <stop
         id="stop1548"
         offset="0.87603265"
         style="stop-color:#006b6b;stop-opacity:1;" />
      <stop
         style="stop-color:#008989;stop-opacity:1"
         offset="1"
         id="stop1542" />
    </linearGradient>
    <linearGradient
       id="linearGradient1536">
      <stop
         style="stop-color:#008033;stop-opacity:1;"
         offset="0"
         id="stop1532" />
      <stop
         style="stop-color:#353535;stop-opacity:1"
         offset="1"
         id="stop1534" />
    </linearGradient>
    <linearGradient
       id="linearGradient1528">
      <stop
         style="stop-color:#a05a2c;stop-opacity:1;"
         offset="0"
         id="stop1524" />
      <stop
         style="stop-color:#502d16;stop-opacity:1"
         offset="1"
         id="stop1526" />
    </linearGradient>
    <linearGradient
       id="linearGradient1260">
      <stop
         style="stop-color:#c16b34;stop-opacity:0.01470588"
         offset="0"
         id="stop1256" />
      <stop
         id="stop1264"
         offset="0.76668841"
         style="stop-color:#a95e2e;stop-opacity:0" />
      <stop
         style="stop-color:#9d582b;stop-opacity:0.6901961"
         offset="1"
         id="stop1258" />
    </linearGradient>
    <linearGradient
       id="linearGradient1189">
      <stop
         style="stop-color:#a05a2c;stop-opacity:1"
         offset="0"
         id="stop1185" />
      <stop
         style="stop-color:#ac9393;stop-opacity:0;"
         offset="1"
         id="stop1187" />
    </linearGradient>
    <radialGradient
       xlink:href="#linearGradient1189"
       id="radialGradient1191"
       cx="248.0731"
       cy="187.39301"
       fx="248.0731"
       fy="187.39301"
       r="2.7439549"
       gradientTransform="matrix(0.29089797,-0.06177638,0.10138029,0.47738825,-87.339426,-61.603223)"
       gradientUnits="userSpaceOnUse" />
    <radialGradient
       xlink:href="#linearGradient1260"
       id="radialGradient1262"
       cx="4.9483967"
       cy="13.246786"
       fx="4.9483967"
       fy="13.246786"
       r="1.5059147"
       gradientTransform="matrix(1.7261139,-0.60860153,0.39807209,1.1290109,-8.5203735,1.8758806)"
       gradientUnits="userSpaceOnUse" />
    <radialGradient
       xlink:href="#linearGradient1528"
       id="radialGradient1530"
       cx="16.973232"
       cy="20.438253"
       fx="16.973232"
       fy="20.438253"
       r="13.948225"
       gradientTransform="matrix(1,0,0,0.61408795,0,9.7816728)"
       gradientUnits="userSpaceOnUse" />
    <radialGradient
       xlink:href="#linearGradient1536"
       id="radialGradient1538"
       cx="18.644419"
       cy="16.871965"
       fx="18.644419"
       fy="16.871965"
       r="4.9445333"
       gradientTransform="matrix(1.0141799,-0.52752083,0.19868575,0.38198127,-3.9886208,21.43338)"
       gradientUnits="userSpaceOnUse" />
    <radialGradient
       xlink:href="#linearGradient1544"
       id="radialGradient1546"
       cx="26.400862"
       cy="14.544124"
       fx="26.400862"
       fy="14.544124"
       r="5.805088"
       gradientTransform="matrix(0.39138853,-0.26377271,0.54769689,0.81267801,7.2382022,9.0625122)"
       gradientUnits="userSpaceOnUse" />
    <radialGradient
       xlink:href="#linearGradient1554"
       id="radialGradient1556"
       cx="13.470286"
       cy="9.8909559"
       fx="13.470286"
       fy="9.8909559"
       r="6.7511163"
       gradientTransform="matrix(0.07942535,-0.22703014,0.82513299,0.28866861,-1.8835595,13.549657)"
       gradientUnits="userSpaceOnUse" />
    <radialGradient
       gradientUnits="userSpaceOnUse"
       fy="27.5"
       fx="27.5"
       r="27.5"
       cy="27.5"
       cx="27.5"
       id="background-gradient">
      <stop
         id="stop157"
         style="stop-color: rgb(255, 255, 255); stop-opacity: 0;"
         offset="50%" />
      <stop
         id="stop159"
         style="stop-color: rgb(117, 255, 117); stop-opacity: 0.3;"
         offset="100%" />
    </radialGradient>
    <radialGradient
       gradientUnits="userSpaceOnUse"
       gradientTransform="matrix(1,0,0,1.7334825,0,-23.649616)"
       r="2.4328139"
       fy="31.070171"
       fx="12.811144"
       cy="31.070171"
       cx="12.811144"
       id="radialGradient1016"
       xlink:href="#linearGradient1012" />
    <radialGradient
       gradientUnits="userSpaceOnUse"
       gradientTransform="matrix(0.70594952,-0.70826215,0.6829789,0.68074882,-12.201332,32.9675)"
       r="4.4001419"
       fy="34.622784"
       fx="32.190056"
       cy="34.622784"
       cx="32.190056"
       id="radialGradient1024"
       xlink:href="#linearGradient1022" />
  </defs>
  <circle
     style="fill:url(#background-gradient)"
     id="circle163"
     cy="27.5"
     cx="27.5"
     r="27.5" />
  <g
     transform="translate(4.7918252,2.456654)"
     id="g272">
    <path
       id="path1345"
       d="m 40.732308,39.391522 c 0,0 -1.646143,1.440614 -1.586039,3.065704 0.919601,0.557302 2.76102,0.04211 2.76102,0.04211 l 0.193893,-1.581603 z"
       style="fill:#000000;stroke:none;stroke-width:1px;stroke-linecap:butt;stroke-linejoin:miter;stroke-opacity:1" />
    <path
       id="path1343"
       d="m 39.184229,32.175144 c 0,0 -3.267907,-0.94398 -1.330932,2.294293 1.936976,3.238272 3.27538,6.020344 3.27538,6.020344 0,0 0.894948,1.060589 1.304061,-0.161206 0.409113,-1.221795 -1.974645,-3.736851 -2.082946,-5.170266 -0.108301,-1.433414 -1.165563,-2.983165 -1.165563,-2.983165 z"
       style="fill:#2b1100;stroke:none;stroke-width:1px;stroke-linecap:butt;stroke-linejoin:miter;stroke-opacity:1" />
    <path
       id="path1341"
       d="m 32.378073,31.686529 6.059669,3.052141 c 0,0 1.732009,-1.133711 1.564986,-1.685195 -0.167023,-0.551484 -5.268313,-3.362644 -5.579925,-3.3391 -0.311612,0.02354 -2.376559,-0.760613 -2.305928,0.174223 0.07063,0.934835 0.261198,1.797931 0.261198,1.797931 z"
       style="fill:#502d16;stroke:none;stroke-width:1px;stroke-linecap:butt;stroke-linejoin:miter;stroke-opacity:1" />
    <path
       id="path1339"
       d="m 34.959341,19.394623 c 0,0 4.155928,3.572045 0.353701,11.318019 -3.653661,4.095567 -8.08261,-5.20217 -8.094146,-5.092163 0,0 0.132407,-5.713714 2.059692,-5.922007 1.927285,-0.208293 5.680753,-0.303849 5.680753,-0.303849 z"
       style="fill:#502d16;stroke:none;stroke-width:1px;stroke-linecap:butt;stroke-linejoin:miter;stroke-opacity:1" />
    <path
       id="path1335"
       d="m 34.346627,32.854037 c -0.662002,0.363408 -6.565737,6.011746 -6.565737,6.011746 l 2.33778,1.076933 c 0,0 0.122154,-1.701539 1.738936,-2.701188 1.616781,-0.999648 3.353499,-2.071037 3.368734,-2.698969 0.01523,-0.627933 -0.879713,-1.688522 -0.879713,-1.688522 z"
       style="fill:#502d16;stroke:none;stroke-width:1px;stroke-linecap:butt;stroke-linejoin:miter;stroke-opacity:1" />
    <path
       id="path1333"
       d="m 27.224987,28.189823 c 0,0 2.777909,5.243114 5.734204,6.210638 2.956295,0.967523 3.006709,-0.853952 3.006709,-0.853952 0,0 -1.435905,-1.58382 -2.2015,-2.591505 -0.765594,-1.007684 -3.105865,-3.776738 -3.105865,-3.776738 0,0 -4.025193,-1.01212 -3.433548,1.011557 z"
       style="fill:url(#radialGradient1024);stroke:none;stroke-width:1px;stroke-linecap:butt;stroke-linejoin:miter;stroke-opacity:1;fill-opacity:1" />
    <path
       id="path1303"
       d="m 15.188192,7.7234562 -0.378208,1.4468196 4.32146,2.6429432 1.283477,-4.130104 c 0,0 -3.755818,0.1508081 -5.094522,0.030352"
       style="fill:#de8787;stroke:none;stroke-width:1px;stroke-linecap:butt;stroke-linejoin:miter;stroke-opacity:1" />
    <path
       id="path1347"
       d="m 12.011119,28.439401 c -0.05817,0.403276 -1.326569,5.906165 -1.802118,6.651217 -0.4755501,0.745052 0.960497,1.567276 1.20826,1.326955 0.247764,-0.24032 0.862963,-1.483445 1.158908,-2.259247 0.295946,-0.775803 2.402624,-4.569222 2.402624,-4.569222 0,0 -1.654038,-2.534238 -2.967674,-1.149703 z"
       style="fill:url(#radialGradient1016);stroke:none;stroke-width:1px;stroke-linecap:butt;stroke-linejoin:miter;stroke-opacity:1;fill-opacity:1" />
    <path
       id="path1226"
       d="m 8.4968888,20.888948 c 0,0 -3.3443485,9.230415 9.0845312,9.506974 0.401471,0.04207 1.146646,-0.03511 1.636052,-0.454742 0,0 3.163319,0.526693 7.596393,-1.444846 3.846645,-1.710747 12.881086,-2.116592 7.506221,-8.837212 -1.577267,-2.120847 -9.509687,0.0012 -17.471293,-2.141866 -1.450371,-0.02653 -8.6578166,3.866876 -8.3519042,3.371692 z"
       style="fill:url(#radialGradient1530);fill-opacity:1;stroke:none;stroke-width:0.38356167px;stroke-linecap:butt;stroke-linejoin:miter;stroke-opacity:1" />
    <path
       id="path1331"
       d="m 26.742752,26.784661 0.917383,2.1871 c 0,0 2.366032,1.450868 5.118743,0.553429 2.75271,-0.897439 6.929145,-5.349744 1.925356,-9.359155 -5.003789,-4.009412 -7.423289,2.127815 -7.423289,2.127815 z"
       style="fill:#784421;stroke:none;stroke-width:1px;stroke-linecap:butt;stroke-linejoin:miter;stroke-opacity:1" />
    <path
       id="path1228"
       d="m 14.863121,25.600789 0.532494,-7.589086 c 1.328442,-1.837326 13.172478,1.238139 17.811261,0.914133 1.728479,-0.120565 -0.621733,8.317049 -0.621733,8.317049 0,0 -4.24351,-2.708533 -5.038213,-2.408086 -0.794683,0.300455 -9.972089,2.292058 -12.683809,0.76599 z"
       style="fill:#005500;stroke:none;stroke-width:0.38356167px;stroke-linecap:butt;stroke-linejoin:miter;stroke-opacity:1" />
    <path
       id="path1295"
       d="m 19.494811,16.300923 c 0,0 -0.441516,-4.348838 -0.778394,-5.87459 -0.336877,-1.5257528 1.698504,-2.743218 1.698504,-2.743218 l 4.013569,-0.2589229 -0.192342,6.8398339 0.0061,3.01331 z"
       style="fill:#916f6f;stroke:none;stroke-width:1px;stroke-linecap:butt;stroke-linejoin:miter;stroke-opacity:1" />
    <path
       id="path1293"
       d="m 15.126282,23.328821 c 0,0 12.074005,-0.336082 14.046318,-0.0419 1.972313,0.294185 3.491599,2.218122 3.563088,1.99112 0.07149,-0.227002 0.244832,-5.558514 0.740359,-6.039155 0.495527,-0.480641 -15.577726,-1.188892 -16.627254,-1.721632 -1.049527,-0.532741 -1.722511,5.811565 -1.722511,5.811565 z"
       style="fill:#806600;stroke:none;stroke-width:1px;stroke-linecap:butt;stroke-linejoin:miter;stroke-opacity:1" />
    <path
       id="path1218"
       d="m 3.3465605,11.243288 c 0,0 8.1873725,-3.6139847 13.5022325,6.273968 -5.80741,0.775351 -8.4024752,2.70236 -8.4024752,2.70236 0,0 0.869273,-3.76797 -1.6990261,-5.304873 C 4.1790026,13.377839 3.3465605,11.243288 3.3465605,11.243288 Z"
       style="fill:url(#radialGradient1556);fill-opacity:1;stroke:none;stroke-width:0.38356167px;stroke-linecap:butt;stroke-linejoin:miter;stroke-opacity:1" />
    <path
       id="path1220"
       d="m 12.735732,21.626491 c 0,0 -4.1944413,1.759358 -3.9173598,3.517449 0.2770722,1.758102 0.8490758,2.965008 1.9189388,3.124588 1.069853,0.159572 2.100828,-0.831879 2.226198,-1.081755 0.12536,-0.249885 0.937903,-2.859619 1.894934,-3.556983 0.95703,-0.697374 -2.122711,-2.003299 -2.122711,-2.003299 z"
       style="fill:#784421;stroke:none;stroke-width:0.38356167px;stroke-linecap:butt;stroke-linejoin:miter;stroke-opacity:1" />
    <path
       id="path1224"
       d="m 2.859461,26.459642 c -0.5174792,0.737082 -0.087471,1.928561 -0.087471,1.928561 0,0 1.6021699,1.193746 2.2698091,3.942388 0.1397421,0.575327 0.8014948,0.784937 1.3714711,1.052345 -0.01241,0.852478 1.4475759,1.097188 2.3620537,1.113498 L 8.4326102,32.210397 6.7633499,32.166514 c 0,0 -0.3189884,-0.621875 -0.032605,-0.881509 C 7.0171181,31.025372 6.546981,30.652913 5.9359206,30.665075 5.324861,30.677245 4.7439686,27.855872 4.7439686,27.855872 L 2.8594511,26.459643"
       style="fill:#241c1c;stroke:none;stroke-width:0.38356167px;stroke-linecap:butt;stroke-linejoin:miter;stroke-opacity:1" />
    <path
       id="path1222"
       d="m 2.859461,26.459642 c -0.088299,0.455437 -0.1310675,0.907424 0.5314241,1.306135 l 1.3530933,0.09009 0.6440468,-0.385237 3.9041772,0.762829 1.7797656,0.0098 c 0,0 1.423435,-0.251797 1.479318,-0.784922 0.05589,-0.533127 -1.004198,-2.472461 -3.3504439,-2.343279 -2.3462519,0.129233 -3.5507832,1.198551 -5.4357666,0.603033 -0.5115702,-0.161618 -0.9456263,0.481702 -0.9056145,0.741566 z"
       style="fill:#784421;stroke:none;stroke-width:0.38356167px;stroke-linecap:butt;stroke-linejoin:miter;stroke-opacity:1" />
    <g
       transform="rotate(4.3558793,-13.393389,1.6370336)"
       id="g1283">
      <path
         style="fill:#784421;fill-opacity:1;stroke:none;stroke-width:0.03835617;stroke-linecap:butt;stroke-linejoin:miter;stroke-miterlimit:4;stroke-dasharray:none;stroke-opacity:1"
         d="M 4.2786839,9.8526392 3.5960532,10.241546 C 3.2043136,9.8139144 2.7312017,9.477827 1.6818235,9.7900393 L 2.8592415,10.66132 C 2.3649115,10.512 1.8297707,10.321868 1.5748253,10.411933 l 0.7036186,0.796806 0.77975,3.59365 2.03415,2.77999 1.22048,1.62732 0.94927,0.13561 0.71195,-1.11878 -0.57634,-0.71195 -0.0678,-0.84756 0.54244,1.35609 0.37293,0.44074 0.57634,-0.88147 -0.98317,-2.13584 -0.16951,-0.88147 0.23731,-1.18658 -0.64414,-1.59341 -1.66122,-0.47464 z"
         id="path1179" />
      <path
         style="fill:#552200;fill-opacity:1;stroke:none;stroke-width:0.19178084;stroke-linecap:butt;stroke-linejoin:miter;stroke-miterlimit:4;stroke-dasharray:none;stroke-opacity:1"
         d="m 4.5499039,13.276779 c -0.48847,0.002 -0.53973,0.73171 -1e-5,0.74585 0.53973,0.0142 0.48848,-0.74779 1e-5,-0.74585 z"
         id="path1181" />
      <path
         style="fill:url(#radialGradient1191);fill-opacity:1;stroke:none;stroke-width:0.38356167px;stroke-linecap:butt;stroke-linejoin:miter;stroke-opacity:1"
         d="m 3.5158839,11.310439 -0.69501,0.33903 0.42379,2.33926 0.86451,-0.7967 c 0,0 0.55939,-0.35598 0.7628,-0.27122 0.20341,0.0847 -0.15256,-1.25439 -1.35609,-1.61037 z"
         id="path1183" />
      <path
         style="fill:#6a5757;fill-opacity:1;stroke:#622c11;stroke-width:0.19178084;stroke-linecap:butt;stroke-linejoin:miter;stroke-miterlimit:4;stroke-dasharray:none;stroke-opacity:1"
         d="m 5.6347739,17.734849 c -0.48847,0.002 -0.53973,0.7317 0,0.74585 0.53972,0.0142 0.48848,-0.74779 0,-0.74585 z"
         id="path1181-8" />
      <path
         style="fill:#d4aa00;stroke:#d4aa00;stroke-width:1px;stroke-linecap:butt;stroke-linejoin:miter;stroke-opacity:1"
         d="M 4.6875,16.862503 7.8384439,15.446539"
         id="path1234" />
      <path
         style="fill:url(#radialGradient1262);fill-opacity:1;stroke:none;stroke-width:1px;stroke-linecap:butt;stroke-linejoin:miter;stroke-opacity:1"
         d="M 4.8508839,11.685439 5.6875,15.300003 c 1.9491574,0.43652 4.0718338,-3.731313 -0.8366161,-3.614564 z"
         id="path1238" />
      <path
         style="fill:#d4aa00;stroke:#d4aa00;stroke-width:0.5;stroke-linecap:butt;stroke-linejoin:miter;stroke-miterlimit:4;stroke-dasharray:none;stroke-opacity:1"
         d="M 6.65625,15.643753 4.8508839,11.685439"
         id="path1266" />
      <path
         style="fill:none;stroke:#d4aa00;stroke-width:0.5;stroke-linecap:round;stroke-linejoin:miter;stroke-miterlimit:4;stroke-dasharray:none;stroke-opacity:1"
         d="M 2.5080194,11.853247 4.7287766,11.610178 7.0821164,12.05212"
         id="path1272" />
      <circle
         style="fill:#aa8800;fill-opacity:0.9754902;stroke:none;stroke-width:0.5;stroke-linecap:round;stroke-miterlimit:4;stroke-dasharray:none;stroke-opacity:1"
         id="path1270"
         cx="4.712204"
         cy="11.6378"
         r="0.32593203" />
    </g>
    <path
       id="path1285"
       d="m 7.9574107,22.876334 c 0,0 -1.9917147,-2.830938 8.8913823,-5.359078"
       style="fill:none;stroke:#c8ab37;stroke-width:1px;stroke-linecap:round;stroke-linejoin:miter;stroke-opacity:1" />
    <path
       id="path1287"
       d="m 19.494811,16.300923 c 0,0 -3.066256,0.681742 -4.912667,3.003655 -0.29957,1.640939 0.505778,1.716774 0.505778,1.716774 4.428881,1.403856 6.480898,-0.885599 9.316504,-1.957466 l -0.0626,-3.317211 z"
       style="fill:url(#radialGradient1538);fill-opacity:1;stroke:none;stroke-width:1px;stroke-linecap:butt;stroke-linejoin:miter;stroke-opacity:1" />
    <path
       id="path1289"
       d="m 15.087922,21.021352 3.30585,4.764479 2.926797,-0.252471 c 0,0 -0.919319,-4.286672 -3.459301,-4.721547 -2.539982,-0.434874 -2.773346,0.209539 -2.773346,0.209539"
       style="fill:#502d16;stroke:none;stroke-width:1px;stroke-linecap:butt;stroke-linejoin:miter;stroke-opacity:1" />
    <path
       id="path1291"
       d="m 16.111388,26.271666 c 0,0 0.49563,1.178825 1.995007,1.102831 1.308804,-0.06633 3.338401,0.217855 3.338401,0.217855 L 21.320569,25.53336 c 0,0 -1.991984,0.856453 -3.217911,-0.697045 0.135999,2.214799 -1.99127,1.435351 -1.99127,1.435351 z"
       style="fill:#ffcc00;stroke:none;stroke-width:1px;stroke-linecap:butt;stroke-linejoin:miter;stroke-opacity:1" />
    <path
       id="path1297"
       d="m 17.591203,7.8521391 1.969176,2.5990679 0.854542,-2.768092 c 0,0 -2.161905,-0.4571404 -2.823718,0.1690241 z"
       style="fill:#008080;stroke:none;stroke-width:1px;stroke-linecap:butt;stroke-linejoin:miter;stroke-opacity:1" />
    <path
       id="path1307"
       d="M 9.1164897,4.2046933 8.6367457,4.4916527 9.4076033,5.1542095 8.443961,5.258356 8.6133386,5.8410011 9.5358479,6.022014 10.91178,6.8499143 11.102941,5.8604283 Z"
       style="fill:#a05a2c;stroke:none;stroke-width:1px;stroke-linecap:butt;stroke-linejoin:miter;stroke-opacity:1" />
    <path
       id="path1305"
       d="m 11.102941,5.8604283 c 0.240587,0.4617826 4.008595,1.5268104 4.217458,1.8530391 0.348762,0.6221523 -0.591649,1.4290309 -0.510415,1.4568084 0,0 -2.324076,-0.8437689 -3.898204,-2.3203615 -0.131571,-0.3107841 0.197014,-0.9847562 0.191161,-0.989486 z"
       style="fill:#784421;stroke:none;stroke-width:1px;stroke-linecap:butt;stroke-linejoin:miter;stroke-opacity:1" />
    <path
       id="path1313"
       d="m 23.14705,7.8141441 c -0.180322,2.1760198 0.207875,3.9956949 0.207875,3.9956949 0,0 1.129557,1.262237 1.623427,1.162245 0.493871,-0.09999 0.940654,-0.823208 0.812964,-2.098463 C 25.663625,9.598367 25.834298,8.4683473 25.131394,7.9462698 24.42849,7.4241921 23.140542,7.3132107 23.14705,7.8141441 Z"
       style="fill:#ff8080;stroke:none;stroke-width:1px;stroke-linecap:butt;stroke-linejoin:miter;stroke-opacity:1" />
    <path
       id="path1325"
       d="m 3.3465605,11.243288 c 0,0 6.7730415,-6.2055511 13.9434245,4.910828 -1.021661,-0.695715 -0.806068,1.356308 -1.400059,0.329496 C 11.248741,8.4605414 4.733408,11.322858 3.3465605,11.243288 Z"
       style="fill:#000000;stroke:none;stroke-width:1px;stroke-linecap:butt;stroke-linejoin:miter;stroke-opacity:1" />
    <path
       id="path1236"
       d="M 6.1284996,18.197565 20.418848,13.598626"
       style="fill:none;stroke:#aa8800;stroke-width:1px;stroke-linecap:butt;stroke-linejoin:miter;stroke-opacity:1" />
    <path
       transform="rotate(-2.1846299,24.213023,21.885071)"
       id="path1232"
       d="m 17.882465,14.040973 -0.480853,1.101859 2.227262,1.273318 0.06121,0.810191 c 0,0 5.592943,4.340967 15.269254,2.168282 -2.604119,-1.948437 -8.892533,0.722694 -14.586199,-3.9122 z"
       style="fill:#483737;stroke:none;stroke-width:1px;stroke-linecap:butt;stroke-linejoin:miter;stroke-opacity:1" />
    <ellipse
       transform="rotate(-4.3207387)"
       ry="2.95"
       rx="3.05"
       cy="21.535828"
       cx="21.2738"
       id="path1230"
       style="fill:#d4aa00;fill-opacity:1;stroke:#d4aa00;stroke-width:1.60000002;stroke-linecap:round;stroke-miterlimit:4;stroke-dasharray:none;stroke-opacity:1" />
    <path
       id="path1309"
       d="m 21.369473,12.492613 -2.018969,0.653967 0.194721,1.332868 1.776188,-0.134199 c 0,0 0.566165,-0.387506 0.667266,-0.708535 0.101101,-0.32103 -0.619206,-1.144101 -0.619206,-1.144101 z"
       style="fill:#a05a2c;stroke:none;stroke-width:1px;stroke-linecap:butt;stroke-linejoin:miter;stroke-opacity:1" />
    <path
       id="path1299"
       d="m 20.184782,9.9165097 c 0,0 0.67336,-3.4832857 2.695433,-3.0401404 0.461302,0.1010961 0.411627,0.3201906 0.423254,0.3225825 0,0 2.623353,0.112035 2.184429,1.3418413 -0.438926,1.2298062 1.631368,-1.2713102 2.779058,2.7594789 1.381398,0.804319 3.072957,0.764719 3.448315,1.645231 0.185478,0.695108 0.116886,1.471387 -0.971862,1.801913 0.620264,2.152637 -5.045153,-0.173947 -6.143941,-0.954042 0,0 1.533003,-3.173915 0.456164,-3.9346369 -1.076839,-0.7607232 -4.87085,0.057773 -4.87085,0.057773 z"
       style="fill:url(#radialGradient1546);fill-opacity:1;stroke:none;stroke-width:1px;stroke-linecap:butt;stroke-linejoin:miter;stroke-opacity:1" />
    <path
       id="path1311"
       d="m 24.202095,10.993694 -3.170687,1.587139 0.679174,1.108231 c 0,0 3.628824,-0.08614 3.813991,-0.538876 0.185167,-0.452737 0.433766,-1.725083 0.03864,-1.977281 -0.395123,-0.252198 -1.36112,-0.179213 -1.36112,-0.179213 z"
       style="fill:#502d16;stroke:none;stroke-width:1px;stroke-linecap:butt;stroke-linejoin:miter;stroke-opacity:1" />
    <path
       id="path1315"
       d="m 21.134735,3.5787137 -0.900906,1.5566731 0.27311,0.089052 -0.08344,0.5547382 1.495114,-0.5360399 0.314866,0.2269231 c 0,0 0.919255,-0.069454 0.643445,-0.8164223 -0.27581,-0.7469685 -1.742186,-1.0749243 -1.742186,-1.0749243 z"
       style="fill:#a05a2c;stroke:none;stroke-width:1px;stroke-linecap:butt;stroke-linejoin:miter;stroke-opacity:1;fill-opacity:1" />
    <path
       id="path1319"
       d="m 20.994438,6.2844736 c 0,0 0.274078,1.1388377 -0.35794,1.4843106 -0.632019,0.3454729 2.510552,0.04536 2.510552,0.04536 0,0 -0.591022,-1.6006469 0.399905,-2.3806448 0.990926,-0.7799979 -1.005189,-1.0679295 -1.005189,-1.0679295 z"
       style="fill:#784421;stroke:none;stroke-width:1px;stroke-linecap:butt;stroke-linejoin:miter;stroke-opacity:1" />
    <path
       id="path1317"
       d="m 20.423496,5.7791771 c 0,0 -0.505574,0.7746664 -0.274496,0.9295724 0.231077,0.1549059 2.252054,-1.0946551 2.252054,-1.0946551 L 22.14671,4.9438517 Z"
       style="fill:#483737;stroke:none;stroke-width:1px;stroke-linecap:butt;stroke-linejoin:miter;stroke-opacity:1" />
    <path
       id="path1323"
       d="m 22.780947,2.9685797 c 0.08877,-0.069385 2.067996,-1.4568176 2.067996,-1.4568176 l -1.125129,2.5294558 z"
       style="fill:#806600;stroke:none;stroke-width:1px;stroke-linecap:butt;stroke-linejoin:miter;stroke-opacity:1" />
    <path
       id="path1321"
       d="m 21.390397,2.3998518 -0.255662,1.1788619 c 0,0 1.571631,0.4766987 2.436041,1.9626726 0.338733,-0.1896265 0.518442,-0.2974045 0.683746,-0.490407 0.09623,0.065738 -0.104902,-0.612477 -0.0036,-0.8772219 -0.519193,-0.2022765 -0.9474,-0.6729339 -1.006089,-1.287235 -0.569348,-0.1193369 -1.537571,0.090148 -1.854436,-0.4866706 z"
       style="fill:#806600;stroke:none;stroke-width:1px;stroke-linecap:butt;stroke-linejoin:miter;stroke-opacity:1" />
    <path
       id="path1327"
       d="m 34.704234,20.166035 c 0,0 9.253908,-5.274678 8.491897,8.697442 -0.01053,0.690255 0.294432,5.556108 0.294432,5.556108 -4.962499,-5.073957 -2.216065,-15.313481 -7.85842,-12.756704 -1.313836,-0.321055 -0.738112,-1.557218 -0.927909,-1.496846 z"
       style="fill:#000000;stroke:none;stroke-width:1px;stroke-linecap:butt;stroke-linejoin:miter;stroke-opacity:1" />
    <path
       id="path1329"
       d="m 41.104314,30.212407 2.090708,-0.534031"
       style="fill:#d4aa00;stroke:#d4aa00;stroke-width:1px;stroke-linecap:butt;stroke-linejoin:miter;stroke-opacity:1" />
    <path
       id="path1337"
       d="m 28.538176,38.933923 -0.491379,1.792114 0.381134,1.726191 1.054771,-0.142371 1.094659,-1.27359 -1.138419,-1.794332 z"
       style="fill:#000000;stroke:none;stroke-width:1px;stroke-linecap:butt;stroke-linejoin:miter;stroke-opacity:1" />
    <path
       id="path1351"
       d="m 6.304125,42.654151 c 0.061501,-0.359208 0.8696214,-1.395308 0.8696214,-1.395308 l 1.1839763,-0.754256 0.9787133,0.635176 -0.587778,1.019451 c 0,0 0.2195588,0.559574 -0.044852,0.579551 -0.2644114,0.01998 -2.3996803,-0.08461 -2.3996807,-0.08461 z"
       style="fill:#000000;stroke:none;stroke-width:1px;stroke-linecap:butt;stroke-linejoin:miter;stroke-opacity:1" />
    <path
       id="path1349"
       d="m 10.338661,34.46034 1.710447,0.934451 c 0,0 -2.2937251,4.250754 -2.2245882,5.752415 0.069137,1.501661 -1.4667971,-0.642619 -1.4667971,-0.642619 z"
       style="fill:#502d16;stroke:none;stroke-width:1px;stroke-linecap:butt;stroke-linejoin:miter;stroke-opacity:1" />
  </g>
</svg>
